<svg viewBox="0 0 400 340" preserveAspectRatio="xMidYMid slice" xmlns="http://www.w3.org/2000/svg"><rect width="400" height="340" fill="#E4EEED"/><g stroke="#1B2A4A" stroke-width="1" opacity=".16"><path d="M0 85H400M0 170H400M0 255H400M100 0V340M200 0V340M300 0V340"/></g><circle cx="200" cy="170" r="86" fill="none" stroke="#1B2A4A" stroke-width="2"/><circle cx="200" cy="170" r="58" fill="none" stroke="#2A7B7B" stroke-width="1.5" opacity=".7"/><line x1="200" y1="88" x2="200" y2="100" stroke="#1B2A4A" stroke-width="2" transform="rotate(0 200 170)"/><line x1="200" y1="88" x2="200" y2="100" stroke="#1B2A4A" stroke-width="2" transform="rotate(30 200 170)"/><line x1="200" y1="88" x2="200" y2="100" stroke="#1B2A4A" stroke-width="2" transform="rotate(60 200 170)"/><line x1="200" y1="88" x2="200" y2="100" stroke="#1B2A4A" stroke-width="2" transform="rotate(90 200 170)"/><line x1="200" y1="88" x2="200" y2="100" stroke="#1B2A4A" stroke-width="2" transform="rotate(120 200 170)"/><line x1="200" y1="88" x2="200" y2="100" stroke="#1B2A4A" stroke-width="2" transform="rotate(150 200 170)"/><line x1="200" y1="88" x2="200" y2="100" stroke="#1B2A4A" stroke-width="2" transform="rotate(180 200 170)"/><line x1="200" y1="88" x2="200" y2="100" stroke="#1B2A4A" stroke-width="2" transform="rotate(210 200 170)"/><line x1="200" y1="88" x2="200" y2="100" stroke="#1B2A4A" stroke-width="2" transform="rotate(240 200 170)"/><line x1="200" y1="88" x2="200" y2="100" stroke="#1B2A4A" stroke-width="2" transform="rotate(270 200 170)"/><line x1="200" y1="88" x2="200" y2="100" stroke="#1B2A4A" stroke-width="2" transform="rotate(300 200 170)"/><line x1="200" y1="88" x2="200" y2="100" stroke="#1B2A4A" stroke-width="2" transform="rotate(330 200 170)"/><line x1="200" y1="170" x2="200" y2="120" stroke="#C18F4B" stroke-width="3" stroke-linecap="round"/><line x1="200" y1="170" x2="238" y2="188" stroke="#2A7B7B" stroke-width="3" stroke-linecap="round"/><circle cx="200" cy="170" r="6" fill="#1B2A4A"/></svg>